<?xml version="1.0" encoding="UTF-8"?>
<svg width="45px" height="45px" viewBox="0 0 45 45" version="1.1" xmlns="http://www.w3.org/2000/svg" xmlns:xlink="http://www.w3.org/1999/xlink">
    <title>DNS</title>
    <g id="页面-1" stroke="none" stroke-width="1" fill="none" fill-rule="evenodd">
        <g id="B2环境图标" transform="translate(-173.000000, -9.000000)" fill-rule="nonzero">
            <g id="DNS" transform="translate(173.000000, 9.000000)">
                <polygon id="路径" fill="#2E3C6B" points="25.4545455 30.8578431 28.2352941 30.8578431 28.2352941 16.7647059 25.3304049 16.7647059 25.3304049 25.5392157 19.644767 16.8872549 19.644767 16.7892157 16.7647059 16.7892157 16.7647059 30.8823529 19.6695951 30.8823529 19.6695951 21.9852941 25.355233 30.7598039 25.355233 30.8578431"></polygon>
                <path d="M7.751657,13.3759184 C9.38224938,10.7056954 11.6942833,8.5299581 14.4443869,7.09594943 C13.8359569,8.85137384 13.1301781,11.2249054 12.6190969,13.9940256 L17.1944905,13.9940256 C17.6082229,11.2001811 18.3140017,8.23326665 19.3118268,5.34052502 L19.1171292,5.34052502 C20.2366404,5.14273072 21.3561516,5.04383357 22.5730116,5.04383357 C23.7898716,5.04383357 24.9093828,5.14273072 26.028894,5.46414646 C27.0510563,8.35688809 27.6594863,11.447424 28.1705675,14.1176471 L32.7216239,14.1176471 C32.2105427,11.3238026 31.5047639,9.07389242 30.8963339,7.31846802 C33.5247514,8.75247669 35.7637738,10.928214 37.3943662,13.4995399 C37.3943662,13.6973342 37.491715,13.7962313 37.491715,14.0187499 L43.2352941,14.0187499 C39.9010978,5.7855622 31.8698219,0 22.5486744,0 C13.1058409,-0.0246453477 5.09890224,5.76083791 1.76470588,13.9940256 L7.5569594,13.9940256 C7.5326222,13.7962313 7.6543082,13.4748156 7.751657,13.3759184 Z" id="路径" fill="#0B76D7"></path>
                <path d="M45,22.3277017 L36.3533256,22.3277017 L36.3533256,19.5338416 L44.675125,19.5338416 C44.5751634,18.4954157 44.3752403,17.4817142 44.1503268,16.7647059 L33.5294118,16.7647059 L33.5294118,25.3193572 L42.1760861,25.3193572 L42.1760861,28.212115 L33.5294118,28.212115 L33.5294118,30.8823529 L43.5255671,30.8823529 C44.4752018,28.5088081 44.7750865,26.1352632 44.8750481,23.9842382 L44.8750481,25.2204595 L45,22.3277017 L45,22.3277017 Z" id="路径" fill="#2E3C6B"></path>
                <path d="M8.51736806,16.7647059 C11.2686587,16.7647059 11.4705882,19.6373402 11.4705882,19.6373402 L11.4705882,28.0342711 C11.4705882,30.7196054 8.93499141,30.8730531 8.56058217,30.8818215 L1.374109,30.8823529 C-0.746151643,25.456266 0.0110843002,19.9319693 0.844043837,16.7647059 L0.844043837,16.7647059 Z M8.61833285,19.5391304 L2.83809849,19.5391304 L2.83809849,28.1324808 L8.61833285,28.1324808 L8.61833285,19.5391304 Z" id="形状结合" fill="#2E3C6B"></path>
                <path d="M31.0863971,37.5515661 C31.6075368,36.210848 31.9053309,34.7708174 32.2279412,33.5294118 L27.6865809,33.5294118 C26.9669118,36.8315508 26.1479779,39.0164248 25.9246324,39.6371276 C24.7830882,39.8357525 23.6415441,39.959893 22.4007353,39.959893 C21.2591912,39.959893 20.2169118,39.8605806 19.1994485,39.6371276 C19.1001838,39.4385027 18.1571691,37.2536287 17.4375,33.5294118 L12.8961397,33.5294118 C13.1939338,34.9694423 13.6158088,36.3101604 14.1369485,37.7750191 C12.0772059,36.7322383 10.3152574,35.1928953 8.87591912,33.5294118 L2.64705882,33.5294118 C6.56801471,40.3571429 13.9136029,45 22.5,45 C30.9871324,45 38.4319853,40.3323147 42.3529412,33.5294118 L35.9503676,33.5294118 C34.6102941,35.1680672 33.046875,36.5087853 31.0863971,37.5515661 Z" id="路径" fill="#0B76D7"></path>
            </g>
        </g>
    </g>
</svg>