<svg width="60" height="78.54" xmlns="http://www.w3.org/2000/svg">
 <title id="title19">DUBBO LOGO</title>

 <g>
  <title>Layer 1</title>
  <path class="cls-1" d="m67.46,50.38c0,14.06 11.39,22.11 25.45,22.11s25.45,-8.05 25.45,-22.11l0,-43.13l-50.9,0l0,43.13zm21.24,-28l8.6,0l0,8.62l-8.6,0l0,-8.62zm0,22.25l8.6,0l0,8.6l-8.6,0l0,-8.6zm-56.46,-37.38l-29.18,0l0,64l29.18,0c10.95,0 19.3,-7.18 23.29,-17.15a45.12,45.12 0 0 0 2.38,-14.87a45.12,45.12 0 0 0 -2.38,-14.83c-3.69,-9.78 -12.34,-17.15 -23.29,-17.15zm0.43,14.63l-3.33,0a3.44,3.44 0 0 0 -3.44,3.44l0,27.91a3.44,3.44 0 0 0 3.44,3.44l3.33,0l0,4.63l-8.3,0a6.87,6.87 0 0 1 -6.87,-6.87l0,-30.31a6.87,6.87 0 0 1 6.87,-6.87l8.3,0l0,4.63zm251.84,-15.82c-17.05,0 -30.88,10.28 -30.88,33.21s13.83,33.21 30.88,33.21s30.88,-10.28 30.88,-33.21s-13.83,-33.21 -30.88,-33.21zm7.59,48.36a6.87,6.87 0 0 1 -6.87,6.87l-8.3,0l0,-4.62l3.33,0a3.44,3.44 0 0 0 3.44,-3.44l0,-27.92a3.44,3.44 0 0 0 -3.44,-3.44l-3.33,0l0,-4.62l8.3,0a6.87,6.87 0 0 1 6.87,6.87l0,30.3zm-53.4,-17.56a17.39,17.39 0 0 0 -12.39,-29.61l-32.21,0l0,64l32.21,0a19.44,19.44 0 0 0 12.38,-34.44l0.01,0.05zm-28.07,24.43l-6.08,0l18.68,-44l6.08,0l-18.68,44zm-34.63,-24.44a17.39,17.39 0 0 0 -12.35,-29.6l-32.22,0l0,64l32.21,0c4.12,-11.46667 8.24,-22.93333 12.36,-34.4zm-28,24.44l-6.08,0l18.68,-44l6.08,0l-18.68,44z" fill="#835be3" id="svg_1"/>
 </g>
</svg>