<?xml version="1.0" encoding="UTF-8"?>
<svg width="50px" height="45px" viewBox="0 0 50 45" version="1.1" xmlns="http://www.w3.org/2000/svg" xmlns:xlink="http://www.w3.org/1999/xlink">
    <title>负载均衡</title>
    <g id="页面-1" stroke="none" stroke-width="1" fill="none" fill-rule="evenodd">
        <g id="B2环境图标" transform="translate(-233.000000, -9.000000)" fill-rule="nonzero">
            <g id="负载均衡" transform="translate(233.000000, 9.000000)">
                <path d="M48.5864782,24.4066652 C47.0353069,22.7593147 44.6300191,22.4327494 42.737556,23.6125587 L39.4480454,20.1248704 C38.969523,19.634733 38.2088876,19.6417427 37.7384692,20.140625 C37.2680507,20.6395073 37.261441,21.4461668 37.7236134,21.9536434 L41.013124,25.4413317 C40.5773241,26.2249741 40.3476619,27.1182203 40.3480672,28.027998 C40.3491374,28.4051381 40.3892155,28.7810158 40.4675823,29.1488867 C40.4423785,29.16182 40.4163616,29.16958 40.3911577,29.1851 L28.3071251,36.5838277 C27.4349812,35.4885686 26.1688037,34.8326473 24.8180881,34.7763927 C23.4673725,34.720138 22.1565904,35.2687339 21.20614,36.2880855 L9.60504597,29.1851 C9.58065513,29.16958 9.55382522,29.16182 9.52862135,29.1480244 C9.60707884,28.7801698 9.64715804,28.4042815 9.64813644,28.0271357 C9.64878807,27.117438 9.41940803,26.2241972 8.98389271,25.4404695 L21.2240267,12.459716 C22.2980465,13.2514304 23.5746592,13.6759399 24.8826519,13.6763114 C25.2573001,13.6740547 25.6310613,13.6374173 25.9997521,13.5668092 C26.9667099,13.3867544 27.8818132,12.9737868 28.6746137,12.3596983 L28.6811179,12.3700449 L33.4121268,17.386453 C33.8906493,17.8765903 34.6512846,17.8695807 35.1217031,17.3706984 C35.5921216,16.8718161 35.5987313,16.0651566 35.1365589,15.55768 L30.4063629,10.5412719 C30.3827851,10.5162675 30.3518901,10.5085075 30.3250602,10.4860897 C32.0411776,7.60760926 31.4969928,3.82844705 29.0490023,1.62433988 C26.6010117,-0.579767297 22.9963943,-0.536079026 20.5965421,1.72678442 C18.1966899,3.98964786 17.734089,7.7810124 19.5117901,10.6171475 L7.25946069,23.6134209 C5.09750242,22.272233 2.32730332,22.9089817 0.882971185,25.0790994 C-0.561360945,27.2492171 -0.199236393,30.230615 1.71651539,31.9417296 C3.63226717,33.6528443 6.46419543,33.5243163 8.23509408,31.6458818 C8.29688419,31.5794907 8.35298311,31.5087885 8.41152112,31.4398107 L19.9841592,38.5255518 C19.5863098,40.0634691 19.8869166,41.7101654 20.7972341,42.9795013 C21.7075516,44.2488372 23.1236108,44.9958396 24.6273611,44.9999888 C25.0516429,45.0009249 25.4742152,44.9429506 25.8843022,44.827533 C28.3275512,44.1347851 29.8498666,41.5565213 29.3705655,38.9230362 L41.5854956,31.4441218 C41.6440336,31.5122374 41.6993195,31.5838018 41.7619226,31.6493307 C42.981012,32.9421842 44.7578737,33.4471011 46.4231808,32.9738839 C48.088488,32.5006667 49.389241,31.1212084 49.8354587,29.3551377 C50.2816764,27.589067 49.8055677,25.704692 48.5864782,24.4118385 L48.5864782,24.4066652 Z M24.885904,2.59244654 C27.0990318,2.5929227 28.8928044,4.49587525 28.8925051,6.84291388 C28.8922058,9.1899525 27.0979479,11.0923904 24.88482,11.0922317 C22.6716921,11.092073 20.8776768,9.18937782 20.8776768,6.84233918 C20.8794694,4.4953604 22.672833,2.59309921 24.885904,2.59072209 L24.885904,2.59244654 Z M6.51147508,29.8171088 C5.56808583,30.7757024 4.07998582,30.7757024 3.13659657,29.8171088 C2.20480674,28.8288038 2.20487546,27.2265655 3.13675007,26.2383505 C4.06862468,25.2501355 5.57944698,25.2501355 6.51132159,26.2383505 C7.44319619,27.2265655 7.44326492,28.8288038 6.51147508,29.8171088 L6.51147508,29.8171088 Z M26.7030212,41.1458447 C26.0442859,42.3562991 24.5850128,42.7712749 23.4435926,42.0727334 C22.6070699,41.5611898 22.1435559,40.565549 22.269246,39.5502046 C22.3949361,38.5348603 23.0850694,37.6998353 24.0177491,37.4346077 C24.9504289,37.1693801 25.9419171,37.5261998 26.5297571,38.3386365 C27.1175971,39.1510732 27.1859843,40.2590768 26.7030212,41.1458447 L26.7030212,41.1458447 Z M46.8661113,29.8171088 C45.9227221,30.7757024 44.4346221,30.7757024 43.4912328,29.8171088 C42.5865814,28.8239097 42.5993798,27.245082 43.5199986,26.2685238 C44.4406173,25.2919655 45.9293615,25.2780124 46.8661113,26.2371627 C47.3139367,26.7117912 47.5655457,27.355702 47.5655457,28.0271357 C47.5655457,28.6985695 47.3139367,29.3424802 46.8661113,29.8171088 Z" id="形状" fill="#666666"></path>
                <path d="M23.7541715,13.2352941 L23.7541715,18.5313272 L17.0990065,24.4258351 C16.8017934,24.688932 16.6422023,25.0859068 16.6697224,25.4936576 C16.6972424,25.9014085 16.9085471,26.2706459 17.2381107,26.4868696 L23.7541715,30.7664322 L23.7541715,34.334295 C24.5558257,34.1404561 25.3913884,34.1671357 26.1804074,34.4117647 L26.1804074,30.8098492 L32.7619766,26.4902749 C33.0913322,26.2741468 33.302565,25.9051833 33.3302396,25.4976811 C33.3579143,25.0901789 33.1986894,24.6933382 32.9018895,24.4300916 L26.1804074,18.4708838 L26.1804074,13.2778599 C25.3772353,13.43323 24.5528968,13.4210818 23.7541715,13.2421046 L23.7541715,13.2352941 Z M19.9377025,25.249057 L23.7541715,21.8693349 L23.7541715,27.753627 L19.9377025,25.249057 Z M26.1804074,27.797044 L26.1804074,21.8037836 L30.0623848,25.2482057 L26.1804074,27.797044 Z" id="形状" fill="#1771B9"></path>
                <path d="M36.2520834,20.2941176 C36.9412887,20.2941176 37.5,19.7015475 37.5,18.9705845 C37.5,18.2396214 36.9412887,17.6470588 36.2520834,17.6470588 L36.2437639,17.6470588 C35.5545586,17.6494954 34.9977097,18.2440332 35,18.9749962 C35.0023044,19.7059593 35.5628781,20.2965467 36.2520834,20.2941176 L36.2520834,20.2941176 Z" id="路径" fill="#666666"></path>
            </g>
        </g>
    </g>
</svg>