<?xml version="1.0" encoding="UTF-8"?>
<svg width="60px" height="41px" viewBox="0 0 60 41" version="1.1" xmlns="http://www.w3.org/2000/svg" xmlns:xlink="http://www.w3.org/1999/xlink">
    <title>mysql</title>
    <g id="页面-1" stroke="none" stroke-width="1" fill="none" fill-rule="evenodd">
        <g id="B2环境图标" transform="translate(-94.000000, -11.000000)" fill-rule="nonzero">
            <g id="mysql" transform="translate(94.000000, 11.000000)">
                <path d="M24,27 C23.0656413,32.1744081 21.8346608,35.9394542 20.3120022,38.2850171 C19.1205713,40.0966925 17.8154353,41 16.3990662,41 C16.0208734,41 15.5586378,40.8836074 15,40.6508223 L15,39.4008675 C15.2719033,39.4438821 15.5932436,39.4666546 15.9541335,39.4666546 C16.6165889,39.4666546 17.1480363,39.2768842 17.5534194,38.904934 C18.0403735,38.4494849 18.2826147,37.9383698 18.2826147,37.3741189 C18.2826147,36.9819266 18.0922824,36.1848906 17.7140895,34.9855413 L15.2076353,27 L17.4570173,27 L19.2540511,32.971444 C19.6594342,34.3276703 19.8299918,35.2739924 19.76078,35.8129405 C20.7495194,33.1207302 21.4366932,30.1780227 21.8247734,27 L24,27 Z" id="路径" fill="#13607D"></path>
                <path d="M13.9927248,37 L11.7446735,37 C11.6814524,33.2703358 11.4629889,29.5453021 11.0899013,25.8354431 L11.0705006,25.8354431 L7.65113456,37 L5.94145156,37 L2.54633639,25.8354431 L2.52208555,25.8354431 C2.25652305,29.5511247 2.0988204,33.2743505 2.0491945,37 L0,37 C0.133379544,32.0227848 0.465615797,27.3544304 0.994283714,23 L3.78312835,23 L7.02061319,33.2886076 L7.04001383,33.2886076 L10.3065997,23 L12.9620647,23 C13.5489346,28.1012658 13.8932963,32.7721519 14,37 L13.9927248,37 Z" id="路径" fill="#13607D"></path>
                <path d="M55,37.0988856 L48.5050669,37.0988856 L48.5050669,23.2109559 L50.6906242,23.2109559 L50.6906242,35.3911474 L55,35.3911474 L55,37.0988856 Z M46.801073,37.4379218 L44.2920038,36.182232 C44.5142638,35.9913671 44.7291152,35.785434 44.9217406,35.5543871 C45.9910585,34.283629 46.5220131,32.3950714 46.5220131,29.8962486 C46.5220131,25.3004238 44.7488717,23 41.2001192,23 C39.4615516,23 38.1032956,23.5826401 37.1253513,24.7504317 C36.063442,26.0262126 35.5300179,27.9047245 35.5300179,30.3884791 C35.5300179,32.8295401 35.9992336,34.6226652 36.9475432,35.7628315 C37.8118879,36.7924972 39.1133441,37.3073301 40.8568509,37.3073301 C41.5088137,37.3073301 42.1064464,37.2244545 42.6472793,37.0612149 L45.9194414,39 L46.8084817,37.4379218 L46.801073,37.4379218 Z M38.6712935,34.3187883 C38.1156433,33.4146916 37.8390531,31.9580913 37.8390531,29.9590331 C37.8390531,26.4606812 38.886145,24.7102496 40.9753896,24.7102496 C42.069403,24.7102496 42.8769479,25.12965 43.3881462,25.9659394 C43.9413268,26.8750589 44.2179171,28.3165908 44.2179171,30.2930466 C44.2179171,33.8190237 43.1708252,35.587035 41.0815805,35.587035 C39.9826279,35.587035 39.1800222,35.1676346 38.6663544,34.3313451 L38.6712935,34.3187883 Z M34.5767691,33.2514519 C34.5767691,34.4318003 34.1520054,35.4011929 33.3024781,36.1546068 C32.4529507,36.9080206 31.3194243,37.2847276 29.8846121,37.2847276 C28.543643,37.2847276 27.2570042,36.8527703 26,35.9913671 L26.5852849,34.7959504 C27.6669505,35.348454 28.6424253,35.619683 29.5240569,35.6196829 C30.3439496,35.6196829 30.9885038,35.4363522 31.4577195,35.0671794 C31.9334028,34.7025036 32.2087939,34.1283908 32.1985864,33.5226809 C32.1985864,32.6939256 31.6305884,31.9907393 30.5983139,31.400565 C29.640126,30.8656412 27.7262199,29.7505886 27.7262199,29.7505886 C26.6840671,28.979595 26.1654603,28.1533511 26.1654602,26.7946947 C26.1654602,25.6645739 26.5531806,24.7604772 27.3261518,24.0698477 C28.104062,23.3716842 29.1042323,23.0276252 30.3390105,23.0276252 C31.6034233,23.0276252 32.7591756,23.3691729 33.7963893,24.0572909 L33.2703738,25.2527076 C32.4416,24.8824755 31.547915,24.6860201 30.6427659,24.6750903 C29.9438814,24.6750903 29.4030486,24.8458641 29.027676,25.1924345 C28.6420636,25.5172887 28.4177899,25.9991827 28.4152261,26.5083975 C28.4152261,27.33213 28.9931023,28.0403391 30.0599506,28.6430701 C31.0304863,29.1830168 32.991314,30.3256946 32.991314,30.3256946 C34.0606319,31.0916653 34.5915865,31.9078638 34.5915865,33.258986 L34.5767691,33.2514519 Z" id="形状" fill="#F78221"></path>
                <path d="M40.5111941,4.00624023 C40.2966418,4.00624023 40.1511194,4.04992195 40,4.10920435 L40,4.14976599 L40.0261194,4.14976599 C40.1268657,4.47425895 40.2985074,4.71138846 40.4253731,5.00156007 C40.5261194,5.33541341 40.6119403,5.66926682 40.7126866,6 L40.738806,5.95319813 C40.9141791,5.74726989 41,5.41653663 41,4.91419655 C40.9253731,4.76755071 40.9141791,4.6209048 40.8507463,4.4773791 C40.7761194,4.26833071 40.6156717,4.16536659 40.5149254,4 L40.5111941,4.00624023 Z" id="路径" fill="#13607D"></path>
                <path d="M58.0260528,18.559099 C56.6651484,18.5242693 55.6094937,18.6586125 54.7268137,19.0268125 C54.472439,19.126326 54.0654396,19.126326 54.0298271,19.4422814 C54.1697332,19.5741368 54.1900832,19.7905786 54.3096393,19.9746787 C54.513139,20.3080489 54.864176,20.7533719 55.1897755,20.9872286 C55.5459,21.2608907 55.9020245,21.5246015 56.2759552,21.7584583 C56.9373293,22.1565123 57.6877345,22.3928569 58.3363898,22.7933987 C58.7052331,23.0272555 59.0817075,23.3233082 59.4556382,23.572092 C59.6413318,23.6964838 59.7608878,23.9203892 60,24 L60,23.9502433 C59.8829876,23.800973 59.8473752,23.5845311 59.7329066,23.417846 C59.5624756,23.2511608 59.3920446,23.1018906 59.2241574,22.9376933 C58.7247374,22.2940068 58.1287036,21.7278483 57.4562536,21.2584029 C56.9118918,20.8951786 55.7214185,20.3876597 55.4975688,19.7781395 L55.4645001,19.7433098 C55.8358871,19.7109679 56.278499,19.5791125 56.6346235,19.479599 C57.2120539,19.3303287 57.7411532,19.3626706 58.3389336,19.2158881 C58.6085707,19.1487165 58.8807516,19.0666179 59.1529324,18.9820314 L59.1529324,18.8327612 C58.8476829,18.5342207 58.6187457,18.1287031 58.3033211,17.8500653 C57.4229049,17.0974044 56.4839757,16.4128439 55.4950251,15.8025749 C54.9608383,15.4692047 54.2842018,15.2552506 53.7220339,14.9716371 C53.5185342,14.8721236 53.1776721,14.8223668 53.0606598,14.6556817 C52.7554102,14.2924574 52.5773479,13.8098168 52.3611295,13.3769331 C51.861639,12.4292833 51.397523,11.4641948 50.9697002,10.4835779 C50.6644506,9.8317644 50.4787571,9.18243876 50.1048265,8.58535778 C48.3496414,5.75668634 46.4494629,4.0425662 43.5266982,2.36576356 C42.8983928,2.0174663 42.1454439,1.86819604 41.3492513,1.68409602 C40.9244456,1.66419333 40.4996399,1.63433928 40.0773781,1.6169244 C39.797566,1.5 39.5279288,1.18404064 39.2888167,1.03228258 C38.322193,0.435201541 35.8191466,-0.858474072 35.1068976,0.853158271 C34.6490232,1.9328798 35.7860778,2.99767437 36.1803585,3.54499862 C36.4728894,3.92563779 36.8417326,4.3610094 37.0452323,4.78891744 C37.1647884,5.07750659 37.1978571,5.37355931 37.3174132,5.67458769 C37.5870503,6.40601197 37.8439687,7.22202275 38.2000932,7.90617809 C38.3857867,8.25447535 38.5892864,8.62018749 38.8283985,8.93365503 C38.9657609,9.1152672 39.1997855,9.19985365 39.2532042,9.49839417 C39.0140921,9.83674011 38.9988296,10.329332 38.8614673,10.742313 C38.2509681,12.6256062 38.4900803,14.9542223 39.3549541,16.3399478 C39.6271349,16.7529289 40.2757902,17.6684531 41.1432078,17.317668 C41.9063317,17.0191275 41.7384445,16.0737492 41.9572066,15.2403236 C42.0080815,15.0412966 41.9750129,14.9094411 42.0793065,14.7750979 L42.0793065,14.8124155 C42.3184186,15.2801289 42.5575308,15.7254519 42.776293,16.1931654 C43.3003047,17.0091761 44.2160535,17.8550409 44.9817211,18.4197801 C45.3887206,18.7183206 45.7117764,19.2357909 46.2205257,19.4198909 L46.2205257,19.3701341 L46.1823695,19.3701341 C46.0729884,19.2258395 45.9279948,19.1561801 45.7906325,19.0392517 C45.468102,18.7304586 45.1704459,18.397757 44.9003213,18.0441166 C44.183619,17.0863441 43.5481128,16.0729118 43.0001427,15.0139303 C42.7203306,14.4914844 42.4863059,13.9292331 42.2624562,13.4142507 C42.1607063,13.2152237 42.1607063,12.9166832 41.9902754,12.8171697 C41.7359007,13.180394 41.36197,13.4963494 41.1762765,13.9441601 C40.8532207,14.6606574 40.820152,15.5413519 40.6980522,16.4568762 C40.629371,16.4742911 40.6624397,16.4568762 40.629371,16.4917059 C40.0850093,16.3623383 39.8993158,15.8100383 39.6958161,15.3473006 C39.1870668,14.1655777 39.1031232,12.2673576 39.5431913,10.9065103 C39.6627474,10.5582131 40.1714967,9.4585888 39.967997,9.12521852 C39.8611596,8.80926311 39.5253851,8.627651 39.3396916,8.3714037 C39.1008193,8.03788955 38.8963208,7.68204935 38.7291924,7.30909705 C38.322193,6.37864578 38.1186933,5.34868098 37.6760814,4.41822965 C37.4725817,3.98783375 37.1164572,3.53753511 36.8264702,3.14196892 C36.5034143,2.69415813 36.1472899,2.37820273 35.8903714,1.8482933 C35.8064278,1.66668113 35.6868717,1.36565281 35.8216903,1.16662582 C35.8573027,1.03228258 35.9285276,0.980037993 36.0608025,0.942720427 C36.2846522,0.763596114 36.9129575,0.997452876 37.1342634,1.09696634 C37.7625688,1.34575013 38.291668,1.57960683 38.8182236,1.92790415 C39.0573358,2.09210144 39.3142541,2.40805684 39.6195037,2.49015542 L39.9756282,2.49015542 C40.51999,2.60708378 41.1330328,2.52498513 41.6417821,2.6717676 C42.5448121,2.95538109 43.358811,3.36836216 44.0888662,3.81617295 C46.3383916,5.22158668 48.1680965,7.18358867 49.3925774,9.50336988 C49.5960771,9.8864969 49.6851083,10.237282 49.8708017,10.635336 C50.2269262,11.4563224 50.6669944,12.2847724 51.0282064,13.0783926 C51.3843309,13.8620615 51.7277366,14.6606574 52.2390297,15.309983 C52.4934043,15.6582803 53.5159904,15.8398925 53.9738648,16.0215046 C54.312183,16.1707748 54.8387386,16.3076059 55.1439881,16.4892181 C55.7290497,16.8375153 56.298849,17.2355694 56.8482982,17.6186964 C57.1281103,17.807772 57.9751778,18.2232409 58.0260528,18.559099 L58.0260528,18.559099 Z" id="路径" fill="#13607D"></path>
            </g>
        </g>
    </g>
</svg>