<svg width="60" height="60" xmlns="http://www.w3.org/2000/svg">
 <title>NGINX-Part-of-F5-horiz-black-type-RGB</title>

 <g>
  <title>Layer 1</title>
  <path class="cls-1" d="m106.37464,49.18062l-1.28148,0l0,-1.75654l3.02683,0l0,-0.78618l-3.86063,0l0,3.31954l2.07726,0c0.74036,0 1.16751,0.34154 1.16751,0.9586l0,0.67373c0,0.693 -0.47448,1.0822 -1.32877,1.0822c-0.81632,0 -1.29111,-0.38917 -1.29111,-1.0822l0,-0.6264l-0.83349,0l0,0.60741a2.15686,2.15686 0 0 0 4.27753,0l0,-0.6357a1.74591,1.74591 0 0 0 -1.95368,-1.75441" fill="#999" id="svg_1"/>
  <polygon class="cls-1" points="103.306 47.424 103.306 46.638 99.218 46.638 99.218 53.326 100.052 53.326 100.052 50.631 102.974 50.631 102.974 49.835 100.052 49.835 100.052 47.424 103.306 47.424" fill="#999" id="svg_2"/>
  <path class="cls-1" d="m95.80197,46.78863l0.41751,0l0,-0.76748l-0.51247,0a1.609,1.609 0 0 0 -1.70648,1.82133l0,0.693l-0.5598,0l0,0.75784l0.5598,0l0,4.03216l0.80516,0l0,-4.03213l1.32818,0l0,-0.75784l-1.32818,0l0,-0.62671c0,-0.79762 0.3132,-1.12017 0.99628,-1.12017" fill="#999" id="svg_3"/>
  <path class="cls-1" d="m85.28129,52.55802c-0.65474,0 -0.97729,-0.30355 -0.97729,-1.07225l0,-2.19242l1.30948,0l0,-0.75784l-1.30948,0l0,-1.40413l-0.80516,0l0,1.40413l-0.6451,0l0,0.75784l0.6451,0l0,2.37273c0,1.14791 0.53988,1.65947 1.61183,1.65947l0.58813,0l0,-0.76749l-0.41751,-0.00004z" fill="#999" id="svg_4"/>
  <path class="cls-1" d="m81.94998,48.4499a2.02515,2.02515 0 0 0 -1.47981,0.57788l-0.161,-0.49227l-0.55918,0l0,4.79l0.80547,0l0,-3.01628a1.13349,1.13349 0 0 1 1.26185,-1.15846a1.9835,1.9835 0 0 1 0.40786,0.04763l0,-0.73885a2.71626,2.71626 0 0 0 -0.27522,-0.00965" fill="#999" id="svg_5"/>
  <path class="cls-1" d="m90.71821,48.41191a1.82361,1.82361 0 0 0 -2.03931,1.9823l0,1.06293a2.04463,2.04463 0 0 0 4.08789,0l0,-1.06293a1.82636,1.82636 0 0 0 -2.04858,-1.9823zm1.24347,2.99787c0,0.84466 -0.37982,1.27154 -1.24347,1.27154c-0.864,0 -1.23413,-0.42688 -1.23413,-1.27154l0,-0.96826c0,-0.84461 0.37982,-1.26215 1.24347,-1.26215c0.864,0 1.23413,0.41754 1.23413,1.26215l0,0.96826z" fill="#999" id="svg_6"/>
  <path class="cls-1" d="m78.10551,48.53551l-0.15133,0.48292a1.87318,1.87318 0 0 0 -1.4997,-0.60651c-1.17684,0 -1.86836,0.58752 -1.86836,2.0203l0,0.99658c0,1.42313 0.69152,2.02 1.86836,2.02a1.874,1.874 0 0 0 1.4997,-0.60621l0.15133,0.48292l0.55918,0l0,-4.79l-0.55918,0zm-1.50874,4.1458c-0.80667,0 -1.20548,-0.39851 -1.20548,-1.30948l0,-0.89228c0,-0.911 0.39881,-1.30015 1.20548,-1.30015a1.13083,1.13083 0 0 1 1.26246,1.14822l0,1.19583a1.13747,1.13747 0 0 1 -1.26246,1.15786" fill="#999" id="svg_7"/>
  <path class="cls-1" d="m71.83589,46.6379l-2.61808,0l0,6.68761l0.83381,0l0,-2.42876l1.79361,0c1.30014,0 2.03929,-0.67283 2.03929,-1.76407l0,-0.7307c0,-1.10089 -0.73915,-1.76408 -2.04863,-1.76408m1.22447,2.49478c0,0.63605 -0.37983,0.96825 -1.17715,0.96825l-1.83159,0l0,-2.67685l1.84124,0c0.78767,0 1.1675,0.34184 1.1675,0.9779l0,0.7307z" fill="#999" id="svg_8"/>
  <path class="cls-2" d="m4.12182,44.94144a3.01888,3.01888 0 0 0 1.13416,1.12547l23.20177,13.39555l0.00073,-0.00072a3.04445,3.04445 0 0 0 3.08381,0l23.2025,-13.39555a3.04264,3.04264 0 0 0 1.54118,-2.66955l0,-26.79111l-0.00072,-0.00072a3.0436,3.0436 0 0 0 -1.54191,-2.67027l-23.20249,-13.39554l0,-0.00074a3.04048,3.04048 0 0 0 -3.08165,0l0,0.00074l-23.20177,13.39554a3.04231,3.04231 0 0 0 -1.54263,2.67027l-0.00072,0.00072l0,26.79111a3.02484,3.02484 0 0 0 0.407,1.5448" fill="#009639" id="svg_9"/>
  <path class="cls-3" d="m22.57146,40.1999a2.98387,2.98387 0 0 1 -5.96774,0l0.00073,0.00072l0.00289,-20.483a3.11074,3.11074 0 0 1 3.388,-2.89913a5.30625,5.30625 0 0 1 4.06733,1.81856l0.90168,1.07912l12.46563,14.91794l0,-14.83317l-0.00145,0a2.98387,2.98387 0 1 1 5.96774,0l-0.00072,0l-0.0029,20.48148a3.11118,3.11118 0 0 1 -3.388,2.89914a5.30274,5.30274 0 0 1 -4.06734,-1.81857l-13.3673,-15.99699l0,14.83462l0.00145,-0.00072z" fill="#fff" id="svg_10"/>
  <polygon points="144.002 19.788 140.069 19.788 135.736 26.657 131.518 19.788 127.442 19.788 133.513 29.707 127.385 39.968 131.261 39.968 135.565 33.042 139.784 39.968 143.86 39.968 137.731 29.964 144.002 19.788" id="svg_11"/>
  <polygon points="122.36 19.788 122.36 33.527 114.436 19.788 111.158 19.788 111.158 39.968 114.436 39.968 114.436 26.315 122.36 39.968 125.667 39.968 125.667 19.788 122.36 19.788" id="svg_12"/>
  <rect x="104.95584" y="19.78766" width="3.50613" height="20.18067" id="svg_13"/>
  <path d="m102.2594,26.97054l0,-1.14006c0,-3.90495 -2.87881,-6.44192 -7.92413,-6.44192c-5.01668,0 -7.8955,2.537 -7.8955,6.44192l0,8.09505c0,3.90524 2.90746,6.44192 7.92414,6.44192s7.89549,-2.53668 7.89549,-6.44192l0,-4.73151l-8.03807,0l0,3.24929l4.53225,0l0,1.28266c0,2.10953 -1.59616,3.39219 -4.41831,3.39219c-2.7932,0 -4.38937,-1.28266 -4.38937,-3.39219l0,-7.69589c0,-2.10922 1.59617,-3.39187 4.418,-3.39187c2.79351,0 4.38967,1.28265 4.38967,3.39187l0,0.94051l3.50583,-0.00005z" id="svg_14"/>
  <polygon points="80.42 19.788 80.42 33.527 72.496 19.788 69.218 19.788 69.218 39.968 72.496 39.968 72.496 26.315 80.42 39.968 83.726 39.968 83.726 19.788 80.42 19.788" id="svg_15"/>
  <path class="cls-1" d="m148.11955,39.06395l0.38127,0l0,-0.8492l0.3016,0a0.86036,0.86036 0 0 1 0.42362,0.07074a0.53054,0.53054 0 0 1 0.20133,0.494l0,0.17411l0.00854,0.06491a0.131,0.131 0 0 1 0.00583,0.0272c0.00195,0.0105 0.00272,0.01361 0.00855,0.01827l0.35328,0l-0.01282,-0.0241a0.24768,0.24768 0 0 1 -0.0171,-0.11037c-0.005,-0.061 -0.005,-0.1131 -0.005,-0.16129l0,-0.1609a0.61588,0.61588 0 0 0 -0.11816,-0.33657a0.5489,0.5489 0 0 0 -0.37621,-0.21143a0.92871,0.92871 0 0 0 0.31365,-0.10183a0.47042,0.47042 0 0 0 0.21064,-0.42751a0.53128,0.53128 0 0 0 -0.33346,-0.54838a1.65934,1.65934 0 0 0 -0.59114,-0.07734l-0.75437,0l-0.00005,2.15969zm1.08434,-1.16439a0.98642,0.98642 0 0 1 -0.36262,0.04819l-0.34045,0l0,-0.78624l0.32491,0a0.95907,0.95907 0 0 1 0.45822,0.08434a0.32713,0.32713 0 0 1 0.14342,0.31519a0.33275,0.33275 0 0 1 -0.22348,0.33852m1.10726,-1.29809a1.91563,1.91563 0 0 0 -1.4003,-0.57248a1.96968,1.96968 0 0 0 0,3.93934a1.97318,1.97318 0 0 0 1.4003,-3.36686m-0.20015,0.19549a1.61325,1.61325 0 0 1 0.49435,1.1982a1.69263,1.69263 0 0 1 -2.8931,1.204a1.671,1.671 0 0 1 -0.492,-1.204a1.69846,1.69846 0 0 1 1.69063,-1.70111a1.6152,1.6152 0 0 1 1.20015,0.50291" fill="#999" id="svg_16"/>
 </g>
</svg>