<?xml version="1.0" encoding="UTF-8"?>
<svg width="55px" height="34px" viewBox="0 0 55 34" version="1.1" xmlns="http://www.w3.org/2000/svg" xmlns:xlink="http://www.w3.org/1999/xlink">
    <title>Nodejs</title>
    <g id="页面-1" stroke="none" stroke-width="1" fill="none" fill-rule="evenodd">
        <g id="B2环境图标" transform="translate(-320.000000, -18.000000)" fill-rule="nonzero">
            <g id="Nodejs" transform="translate(320.000000, 18.000000)">
                <path d="M27.0091884,34 C26.8254211,34 26.6477795,33.9492696 26.4885145,33.8541502 L24.8346095,32.8395425 C24.5895865,32.6936927 24.7059724,32.6429623 24.7917305,32.6175971 C25.1225115,32.4971124 25.1898928,32.4717473 25.5390505,32.2624844 C25.575804,32.2434605 25.6248086,32.2498018 25.661562,32.2688257 L26.9356815,33.0488053 C26.9785605,33.0741705 27.0459418,33.0741705 27.0888208,33.0488053 L32.0444104,30.0874193 C32.0872894,30.0620541 32.1179173,30.0049824 32.1179173,29.9479108 L32.1179173,24.0251387 C32.1179173,23.968067 32.0872894,23.9109954 32.0382848,23.8856302 L27.0826953,20.9242441 C27.0398162,20.8988789 26.9785605,20.8988789 26.9295559,20.9242441 L21.9800919,23.8919715 C21.9310873,23.9173367 21.9004594,23.9744083 21.9004594,24.03148 L21.9004594,29.9542521 C21.9004594,30.0113237 21.9310873,30.0620541 21.9800919,30.0937606 L23.3399694,30.9054467 C24.0750383,31.2859246 24.5283308,30.8356924 24.5283308,30.3854603 L24.5283308,24.5387838 C24.5283308,24.456347 24.5895865,24.392934 24.669219,24.392934 L25.2940276,24.392934 C25.37366,24.392934 25.4349158,24.456347 25.4349158,24.5387838 L25.4349158,30.3854603 C25.4349158,31.4000679 24.9019908,31.9898086 23.9647779,31.9898086 C23.676876,31.9898086 23.4502297,31.9898086 22.8192956,31.6664024 L21.5206738,30.8927641 C21.202144,30.7025252 21,30.3410712 21,29.9542521 L21,24.03148 C21,23.6446609 21.1960184,23.2895482 21.5206738,23.0993093 L26.482389,20.1379232 C26.7947933,19.9540256 27.2113323,19.9540256 27.5237366,20.1379232 L32.4793262,23.0993093 C32.797856,23.2895482 33,23.6510022 33,24.03148 L33,29.9542521 C33,30.3410712 32.797856,30.6961839 32.4793262,30.8864228 L27.5237366,33.8478089 C27.3705972,33.9492696 27.18683,33.9936587 27.0091884,34" id="路径" fill="#689F63"></path>
                <path d="M28.4180791,30 C26.4180791,30 26,28.9938272 26,28.154321 C26,28.0740741 26.0564972,28.0123457 26.1299435,28.0123457 L26.7231638,28.0123457 C26.7909605,28.0123457 26.8418079,28.0617284 26.8531073,28.1358025 C26.9435028,28.7901235 27.2090395,29.1234568 28.4180791,29.1234568 C29.3841808,29.1234568 29.7909605,28.882716 29.7909605,28.3271605 C29.7909605,28.0061728 29.6723164,27.7654321 28.1751412,27.6049383 C26.920904,27.4691358 26.1468927,27.1666667 26.1468927,26.0740741 C26.1468927,25.0679012 26.9265537,24.4691358 28.2259887,24.4691358 C29.6892655,24.4691358 30.4124294,25.0246914 30.5084746,26.2160494 C30.5141243,26.2592593 30.4971751,26.2962963 30.4745763,26.3271605 C30.4519774,26.3580247 30.4124294,26.3703704 30.3785311,26.3703704 L29.7853107,26.3703704 C29.7231638,26.3703704 29.6723164,26.3209877 29.6553672,26.2592593 C29.5141243,25.5679012 29.1694915,25.345679 28.2259887,25.345679 C27.1751412,25.345679 27.0508475,25.7469136 27.0508475,26.0432099 C27.0508475,26.4074074 27.1977401,26.5123457 28.6158192,26.7160494 C30.0225989,26.9197531 30.6892655,27.2098765 30.6892655,28.2839506 C30.6892655,29.3703704 29.8587571,29.9938272 28.4124294,29.9938272 M33.9774011,23.8950617 L34.1299435,23.8950617 C34.2542373,23.8950617 34.2824859,23.7962963 34.2824859,23.7407407 C34.2824859,23.5925926 34.1920904,23.5925926 34.1355932,23.5925926 L33.9774011,23.5925926 L33.9774011,23.8950617 L33.9774011,23.8950617 Z M33.7909605,23.4259259 L34.1299435,23.4259259 C34.2485876,23.4259259 34.4745763,23.4259259 34.4745763,23.7098765 C34.4745763,23.9074074 34.3559322,23.9506173 34.2881356,23.9753086 C34.4237288,23.9876543 34.4350282,24.0802469 34.4519774,24.2222222 C34.4632768,24.308642 34.4745763,24.4567901 34.5028249,24.5061728 L34.2937853,24.5061728 C34.2881356,24.4567901 34.2542373,24.1790123 34.2542373,24.1666667 C34.2429379,24.1049383 34.220339,24.0740741 34.1525424,24.0740741 L33.9774011,24.0740741 L33.9774011,24.5061728 L33.7909605,24.5061728 L33.7909605,23.4259259 Z M33.3841808,23.962963 C33.3841808,24.4135802 33.7175141,24.7716049 34.1186441,24.7716049 C34.5310734,24.7716049 34.8587571,24.4012346 34.8587571,23.962963 C34.8587571,23.5123457 34.5254237,23.1604938 34.1186441,23.1604938 C33.7175141,23.154321 33.3785311,23.5061728 33.3841808,23.962963 M35,23.962963 C35,24.4938272 34.6045198,24.9259259 34.1186441,24.9259259 C33.6384181,24.9259259 33.2372881,24.5 33.2372881,23.962963 C33.2372881,23.4197531 33.6497175,23 34.1186441,23 C34.5932203,23 35,23.4197531 35,23.962963" id="形状" fill="#689F63"></path>
                <path d="M11.8041295,11.1543393 C11.8041295,10.9292609 11.6813616,10.722432 11.484933,10.6068512 L6.21819196,7.60174998 C6.13225446,7.54700117 6.02790179,7.52266837 5.9296875,7.51658516 L5.87444196,7.51658516 C5.77622768,7.52266837 5.671875,7.54700117 5.5859375,7.60174998 L0.319196429,10.6068512 C0.122767857,10.722432 0,10.9292609 0,11.1543393 L0.0122767857,19.2449965 C0.0122767857,19.3544942 0.0736607143,19.4639918 0.171875,19.5187406 C0.270089286,19.5795726 0.392857143,19.5795726 0.484933036,19.5187406 L3.61551339,17.7424459 C3.81194196,17.6268651 3.93470982,17.4200363 3.93470982,17.1949578 L3.93470982,13.4172901 C3.93470982,13.1922116 4.05747768,12.9853828 4.25390625,12.869802 L5.5859375,12.1094019 C5.68415179,12.054653 5.79464286,12.024237 5.90513393,12.024237 C6.015625,12.024237 6.12611607,12.054653 6.22433036,12.1094019 L7.55636161,12.869802 C7.75279018,12.9792996 7.87555804,13.1922116 7.87555804,13.4172901 L7.87555804,17.1949578 C7.87555804,17.4200363 7.99832589,17.6268651 8.19475446,17.7424459 L11.3253348,19.5187406 C11.4235491,19.5795726 11.546317,19.5795726 11.6445312,19.5187406 C11.7427455,19.4639918 11.8041295,19.3605774 11.8041295,19.2449965 L11.8041295,11.1543393 L11.8041295,11.1543393 Z M36.6523437,15.3639143 C36.6523437,15.4186632 36.6216518,15.473412 36.5725446,15.4977448 L34.7617188,16.5318889 C34.7126116,16.5623049 34.6512277,16.5623049 34.6021205,16.5318889 L32.7912946,15.4977448 C32.7421875,15.4673288 32.7114955,15.4186632 32.7114955,15.3639143 L32.7114955,13.295626 C32.7114955,13.2408772 32.7421875,13.1861284 32.7912946,13.1617956 L34.6021205,12.1276515 C34.6512277,12.0972355 34.7126116,12.0972355 34.7617188,12.1276515 L36.5725446,13.1617956 C36.6216518,13.1922116 36.6523437,13.2408772 36.6523437,13.295626 L36.6523437,15.3639143 Z M37.1434152,0.0403312358 C37.0452009,-0.0144175725 36.922433,-0.0144175725 36.8242187,0.0464144367 C36.7260045,0.101163245 36.6646205,0.204577661 36.6646205,0.320158478 L36.6646205,8.33173409 C36.6646205,8.4108157 36.6216518,8.48381411 36.5541295,8.52031332 C36.4866071,8.55681252 36.4006696,8.55681252 36.3331473,8.52031332 L35.0133929,7.7659964 C34.8169643,7.65041558 34.577567,7.65041558 34.375,7.7659964 L29.1082589,10.7771809 C28.9118304,10.8866785 28.7890625,11.0995905 28.7890625,11.3246689 L28.7890625,17.353121 C28.7890625,17.5781995 28.9118304,17.7850283 29.1082589,17.9006091 L34.375,20.9178768 C34.5714286,21.0273744 34.8108259,21.0273744 35.0133929,20.9178768 L40.2801339,17.9006091 C40.4765625,17.7850283 40.5993304,17.5781995 40.5993304,17.353121 L40.5993304,2.32153158 C40.5993304,2.09036995 40.4765625,1.88354111 40.2739955,1.7679603 L37.1434152,0.0403312358 Z M54.6808036,13.2408772 C54.8772321,13.1252964 55,12.9184676 55,12.6933891 L55,11.2334209 C55,11.0083425 54.8772321,10.8015137 54.6808036,10.6859328 L49.4447545,7.67474839 C49.2479381,7.55916468 49.0031779,7.55916468 48.8063616,7.67474839 L43.5396205,10.6859328 C43.343192,10.8015137 43.2204241,11.0083425 43.2204241,11.2334209 L43.2204241,17.2557898 C43.2204241,17.4808683 43.343192,17.6937803 43.5396205,17.8032779 L48.7756696,20.7597136 C48.9659598,20.8692112 49.2053571,20.8692112 49.4017857,20.7657968 L52.5691964,19.0199181 C52.6674107,18.9651693 52.734933,18.8617549 52.734933,18.7461741 C52.734933,18.6305932 52.6735491,18.5271788 52.5753348,18.47243 L47.2779018,15.4612456 C47.1796875,15.4064968 47.1183036,15.3030823 47.1183036,15.1875015 L47.1183036,13.295626 C47.1183036,13.1800452 47.1796875,13.0766308 47.2779018,13.021882 L48.9291295,12.0789859 C49.0273438,12.024237 49.1501116,12.024237 49.2483259,12.0789859 L50.8995536,13.021882 C50.9977679,13.0766308 51.0591518,13.1800452 51.0591518,13.295626 L51.0591518,14.7799271 C51.0591518,14.8894247 51.1205357,14.9989223 51.21875,15.0536711 C51.3169643,15.1084199 51.4397321,15.1084199 51.5379464,15.0536711 L54.6808036,13.2408772 L54.6808036,13.2408772 Z" id="形状" fill="#231815"></path>
                <path d="M48.7969152,12.6334405 C48.8339332,12.607717 48.8832905,12.607717 48.9203085,12.6334405 L49.9383033,13.244373 C49.9753213,13.2700965 50,13.3086817 50,13.3536977 L50,14.5755627 C50,14.6205788 49.9753213,14.6655949 49.9383033,14.6848875 L48.9203085,15.2958199 C48.8832905,15.3215434 48.8339332,15.3215434 48.7969152,15.2958199 L47.7789203,14.6848875 C47.7419023,14.659164 47.7172237,14.6205788 47.7172237,14.5755627 L47.7172237,13.3536977 C47.7172237,13.3086817 47.7419023,13.2636656 47.7789203,13.244373 L48.7969152,12.6334405 Z M26.6236504,10.3762058 L26.6113111,10.3633441 C26.6051414,10.3569132 26.5989717,10.3504823 26.5866324,10.3440514 C26.5742931,10.3311897 26.5557841,10.318328 26.5434447,10.3054662 C26.5372751,10.2990354 26.5372751,10.2990354 26.5311054,10.2990354 L26.4755784,10.2604502 L23.0267352,8.18327974 L22.477635,7.85530547 L21.2066838,7.09003215 C21.1511568,7.05787781 21.0956298,7.03858521 21.0401028,7.0192926 C20.9907455,7.00643087 20.9413882,7 20.8920308,7 L20.8303342,7 L20.8241645,7 C20.8118252,7 20.7994859,7.00643087 20.7871465,7.00643087 C20.7748072,7.00643087 20.7624679,7.01286174 20.7562982,7.01286174 C20.7439589,7.0192926 20.7254499,7.0192926 20.7131105,7.02572347 C20.7069409,7.02572347 20.6946015,7.03215434 20.6884319,7.03215434 C20.6699229,7.03858521 20.6575835,7.04501608 20.6452442,7.05144695 L20.6390746,7.05144695 C20.6205656,7.05787781 20.6020566,7.07073955 20.5835476,7.08360129 L16.5239075,9.52733119 L15.333162,10.2411576 L15.3208226,10.2475884 C15.1233933,10.3633441 15,10.5819936 15,10.8199357 L15,17.1607717 C15,17.3086817 15.0493573,17.4501608 15.129563,17.5659164 C15.1419023,17.585209 15.1604113,17.6045016 15.1789203,17.6237942 L15.1912596,17.6366559 C15.203599,17.6495177 15.222108,17.6623794 15.2344473,17.681672 L15.2467866,17.6945338 C15.2652956,17.7138264 15.2899743,17.7266881 15.314653,17.7395498 L19.9048843,20.5048232 L20.5835476,20.9099678 C20.6390746,20.9421222 20.6946015,20.9678457 20.7562982,20.9807074 C20.7686375,20.9807074 20.7809769,20.9871383 20.7871465,20.9871383 C20.8056555,20.9871383 20.8179949,20.9935691 20.8365039,20.9935691 C20.8550129,20.9935691 20.8673522,20.9935691 20.8858612,21 L20.9043702,21 C20.9290488,21 20.9475578,21 20.9722365,20.9935691 L20.9969152,20.9935691 C21.0154242,20.9935691 21.0339332,20.9871383 21.0524422,20.9807074 C21.0586118,20.9807074 21.0647815,20.9807074 21.0709512,20.9742765 L21.0832905,20.9742765 L21.1388175,20.9549839 C21.1449871,20.9549839 21.1449871,20.9549839 21.1511568,20.9485531 L21.2251928,20.9099678 L26.4879177,17.7395498 C26.648329,17.6430868 26.759383,17.4694534 26.796401,17.2829582 C26.8025707,17.244373 26.8087404,17.2057878 26.8087404,17.1672026 L26.8087404,10.8263666 C26.796401,10.6527331 26.7347044,10.4919614 26.6236504,10.3762058 L26.6236504,10.3762058 Z" id="形状" fill="#689F63"></path>
            </g>
        </g>
    </g>
</svg>