<?xml version="1.0" encoding="UTF-8"?>
<svg width="45px" height="45px" viewBox="0 0 45 45" version="1.1" xmlns="http://www.w3.org/2000/svg" xmlns:xlink="http://www.w3.org/1999/xlink">
    <title>Python</title>
    <g id="页面-1" stroke="none" stroke-width="1" fill="none" fill-rule="evenodd">
        <g id="B2环境图标" transform="translate(-504.000000, -11.000000)" fill-rule="nonzero">
            <g id="Python" transform="translate(504.000000, 11.000000)">
                <path d="M15.2874074,21.8355556 C15.7407407,21.76 16.1940741,21.7096296 16.6474074,21.7096296 L16.2696296,21.7096296 L28.5348148,21.7096296 C29.0637037,21.7096296 29.5674074,21.6340741 30.0711111,21.5081481 C32.3377778,20.8785185 34,18.8637037 34,16.3703704 L34,6.06962963 C34,3.14814815 31.5066667,0.931851852 28.5348148,0.453333333 C26.6459259,0.151111111 23.9007407,0 22.037037,0 C20.1733333,0 18.3851852,0.176296296 16.7985185,0.453333333 C12.1644444,1.25925926 11.3333333,2.94666667 11.3333333,6.06962963 L11.3333333,9.44444444 L22.6666667,9.44444444 L22.6666667,11.3333333 L7.6562963,11.3333333 C3.45037037,11.3333333 0.0251851852,16.3703704 0,22.5659259 L0,22.6666667 C0,23.8 0.100740741,24.882963 0.327407407,25.8903704 C1.25925926,30.5748148 4.18074074,34 7.6562963,34 L9.44444444,34 L9.44444444,28.5851852 C9.44444444,25.4118519 11.8118519,22.4651852 15.2874074,21.8355556 Z M16.4962963,7.42962963 C15.362963,7.42962963 14.4311111,6.49777778 14.4562963,5.36444444 C14.4562963,4.23111111 15.362963,3.29925926 16.4962963,3.29925926 C17.6296296,3.29925926 18.5614815,4.23111111 18.5614815,5.36444444 C18.5362963,6.52296296 17.6296296,7.42962963 16.4962963,7.42962963 Z" id="形状" fill="#0075AA"></path>
                <path d="M44.5214815,18.3755571 C43.4385185,14.0710511 40.642963,11 37.3437037,11 L35.5555556,11 L35.5555556,15.807957 C35.5555556,19.8103924 32.9362963,22.7052357 29.7125926,23.2086867 C29.3851852,23.2590318 29.0577778,23.2842043 28.7303704,23.2842043 L16.4651852,23.2842043 C15.9362963,23.2842043 15.4325926,23.359722 14.9288889,23.4855847 C12.6622222,24.0897259 11,25.9524946 11,28.3942319 L11,38.6898048 C11,41.6098206 13.9466667,43.3467265 16.842963,44.1774207 C20.2933333,45.1843227 24.0711111,45.3605305 28.2266667,44.1774207 C30.9718519,43.3970716 33.6666667,41.811201 33.6666667,38.6898048 L33.6666667,35.5684086 L22.3333333,35.5684086 L22.3333333,33.6552948 L37.3437037,33.6552948 C40.3155556,33.6552948 42.9096296,31.1380399 44.1688889,27.4628476 C44.6977778,25.9273221 45,24.1904161 45,22.3276474 C45,20.9431572 44.8237037,19.609012 44.5214815,18.3755571 Z M28.4533333,37.280142 C29.5866667,37.280142 30.4933333,38.2115264 30.4933333,39.3442911 C30.4933333,40.4770559 29.5614815,41.4084402 28.4533333,41.4084402 C27.32,41.4084402 26.3881481,40.4770559 26.3881481,39.3442911 C26.4133333,38.2115264 27.32,37.280142 28.4533333,37.280142 L28.4533333,37.280142 Z" id="形状" fill="#FFD400"></path>
            </g>
        </g>
    </g>
</svg>