<?xml version="1.0" encoding="UTF-8"?>
<svg width="46px" height="40px" viewBox="0 0 46 40" version="1.1" xmlns="http://www.w3.org/2000/svg" xmlns:xlink="http://www.w3.org/1999/xlink">
    <title>redis-3</title>
    <g id="页面-1" stroke="none" stroke-width="1" fill="none" fill-rule="evenodd">
        <g id="B2环境图标" transform="translate(-427.000000, -14.000000)" fill="#D82C1F" fill-rule="nonzero">
            <g id="redis-3" transform="translate(427.000000, 14.000000)">
                <path d="M45.9885,24.5501766 C45.9693333,24.9954741 45.3885833,25.4932739 44.1964166,26.1252464 C41.7430833,27.4222484 29.0240833,32.7288726 26.31775,34.1600472 C23.6095,35.5912218 22.1068333,35.5776101 19.9678333,34.5392307 C17.8288333,33.5027959 4.29716664,27.9550498 1.85916664,26.7747197 C0.642083318,26.1835823 0.0210833184,25.6857825 0,25.2152061 L0,29.9326375 C0,30.4032139 0.640166682,30.9029583 1.85916664,31.4940957 C4.29716664,32.6763703 17.83075,38.2221719 19.9678333,39.2586067 C22.1068333,40.2969861 23.6095,40.3105978 26.31775,38.8774787 C29.0240833,37.4463041 41.7411667,32.1416244 44.1964166,30.8426779 C45.4441666,30.183482 45.9980833,29.6701259 45.9980833,29.205383 L45.9980833,24.5540656 L45.9885,24.5501766 L45.9885,24.5501766 Z M45.9885,16.8595577 C45.9655,17.3048552 45.3866667,17.8007105 44.1964166,18.432683 C41.7430833,19.729685 29.0240833,25.0363093 26.31775,26.4674838 C23.6095,27.8986584 22.1068333,27.8850467 19.9678333,26.8486118 C17.8288333,25.812177 4.29716664,20.2644309 1.85916664,19.0821563 C0.642083318,18.4929635 0.0210833184,17.9932191 0,17.5245872 L0,22.2420187 C0,22.7125951 0.640166682,23.2103949 1.85916664,23.8015322 C4.29716664,24.9838069 17.8288333,30.5296084 19.9678333,31.5660433 C22.1068333,32.6044227 23.6095,32.6180344 26.31775,31.1868598 C29.0240833,29.7556852 41.7411667,24.449061 44.1964166,23.152059 C45.4441666,22.4909186 45.9980833,21.9775625 45.9980833,21.5128196 L45.9980833,16.8615022 L45.9865833,16.8595577 L45.9885,16.8595577 Z M45.9885,8.88309282 C46.0095833,8.40862732 45.3981667,7.99249778 44.1676666,7.53358851 C41.7756666,6.64493797 29.13525,1.54054491 26.7145,0.640227234 C24.29375,-0.258145944 23.3085833,-0.221199846 20.4661666,0.815234996 C17.618,1.84778079 4.15916664,7.20496281 1.76525,8.15389381 C0.567333318,8.63224836 -0.01725,9.07365681 0.00146032722,9.54423323 L0.00146032722,14.2636092 C0.00146032722,14.7341856 0.642083318,15.2319855 1.86108332,15.8231228 C4.29908332,17.0053975 17.83075,22.5531435 19.96975,23.5895784 C22.10875,24.6260133 23.6114167,24.639625 26.3196666,23.2084504 C29.026,21.7772758 41.7430833,16.4706516 44.1983333,15.1736496 C45.4460833,14.5125091 46,13.999153 46,13.5344102 L46,8.88309282 L45.9846666,8.88309282 L45.9885,8.88309282 Z M16.4699166,13.3496798 L27.1285,11.6890506 L23.9085,16.4784297 L16.4718333,13.3496798 L16.4699166,13.3496798 Z M40.0449166,9.03671072 L33.741,11.5646006 L33.05675,11.8368349 L26.7566666,9.30894504 L33.7371666,6.50882085 L40.043,9.03671072 L40.0449166,9.03671072 Z M21.5375833,4.40289412 L20.5064166,2.47391964 L23.7225833,3.7495318 L26.75475,2.74226488 L25.9344166,4.73540886 L29.0240833,5.90990537 L25.0393333,6.329924 L24.1461666,8.50779838 L22.7048333,6.07907954 L18.1048333,5.65906091 L21.5375833,4.40289412 L21.5375833,4.40289412 Z M13.5968333,7.12523706 C16.744,7.12523706 19.2931666,8.12667035 19.2931666,9.36339187 C19.2931666,10.6001134 16.744,11.6034912 13.5968333,11.6034912 C10.4496667,11.6034912 7.89858332,10.5981688 7.89858332,9.36339187 C7.89858332,8.12667035 10.4496666,7.12329252 13.5968333,7.12329252 L13.5968333,7.12523706 Z" id="形状"></path>
            </g>
        </g>
    </g>
</svg>