<?xml version="1.0" encoding="utf-8"?>
<!-- Generator: Adobe Illustrator 25.4.1, SVG Export Plug-In . SVG Version: 6.00 Build 0)  -->
<svg width="32px" height="32px" version="1.1" id="图层_1" xmlns="http://www.w3.org/2000/svg" xmlns:xlink="http://www.w3.org/1999/xlink" x="0px" y="0px"
	 viewBox="0 0 32 32" style="enable-background:new 0 0 32 32;" xml:space="preserve">
<style type="text/css">
	.st0{fill:#F56C6C;}
	.st1{enable-background:new    ;}
	.st2{fill:#FFFFFF;}
</style>
<rect class="st0" width="32px" height="32px"/>
<g class="st1">
	<path class="st2" d="M7.9,2.7h2.2c0,3.8-0.1,7-0.3,9.7c2.4,2.6,4.4,4.9,6.2,6.9L14.4,21c-1.3-1.7-2.9-3.7-4.8-5.8
		C9.1,20.3,7.2,24.9,3.9,29c-0.4-0.5-0.9-1.1-1.6-1.8c2.5-2.9,4.1-6.4,4.9-10.6C7.7,14.2,7.9,9.5,7.9,2.7z M18.8,2.7h2.1
		c0,2.1,0,4.5-0.1,7.1c1.2,8.3,4.1,13.9,8.9,16.9c-0.7,0.7-1.2,1.4-1.8,2.1c-3.8-2.8-6.4-7.2-7.8-13.3c-1,5.5-3.8,10.1-8.5,13.8
		C11,28.6,10.5,28,10,27.5c4.6-3.4,7.3-7.9,8.3-13.4C18.6,11.5,18.8,7.7,18.8,2.7z"/>
</g>
</svg>
