<?xml version="1.0" encoding="UTF-8"?>
<svg width="50px" height="36px" viewBox="0 0 50 36" version="1.1" xmlns="http://www.w3.org/2000/svg" xmlns:xlink="http://www.w3.org/1999/xlink">
    <title>tomcat</title>
    <g id="页面-1" stroke="none" stroke-width="1" fill="none" fill-rule="evenodd">
        <g id="B2环境图标" transform="translate(-16.000000, -16.000000)">
            <g id="tomcat" transform="translate(16.000000, 16.000000)">
                <path d="M26.2639796,12.5 C22.3055222,12.6503918 17.693412,14.9215011 12.427649,19.3133279 C7.16188604,23.7051547 3.29711414,28.5040556 0.833333333,33.7100305 L5.58707442,33.7100305 C4.75716303,29.9429736 6.43399397,27.4106224 10.6175672,26.1129768 C14.8011405,24.8153313 21.5411433,25.7523268 30.8375757,28.9239634 L43.9151066,35 L49.1666667,35 C48.4115174,33.6354917 47.7375412,32.7886817 47.1447381,32.4595702 C46.551935,32.1304587 45.6322177,32.0281709 44.3855865,32.152707 L26.2639796,12.5 Z" id="路径-16" fill="#D4A41C"></path>
                <path d="M44.664778,32.1697742 L26.4179259,12.5 L26.2348585,12.5069134 C22.1439463,12.6614041 17.4226084,14.9723371 12.0564992,19.4209775 C6.70902881,23.854166 2.77907212,28.7047003 0.270960394,33.9725186 L0,34.5416201 L5.91657557,34.5416201 L5.80926218,34.0574385 C5.02047832,30.4985664 6.57990043,28.1576697 10.6053242,26.916577 L10.7295006,26.8791917 C14.8114622,25.6794671 21.395481,26.589577 30.4511778,29.6340715 L30.7094364,29.721185 L43.9439713,35.8333333 L50,35.8333333 L49.6706103,35.2417209 C49.6381877,35.1834871 49.6058921,35.1261361 49.5737209,35.0696672 L49.4775779,34.9029066 L49.3821657,34.7414356 L49.2874687,34.5852509 C48.6427809,33.5360421 48.0470998,32.8568553 47.478092,32.5428517 L47.4288433,32.5164251 C46.7981479,32.1874029 45.9060097,32.0753731 44.7459727,32.1633008 L44.664778,32.1697742 Z M26.0310939,13.3139448 L26.0832796,13.3110983 L44.347875,32.9998235 L44.5451205,32.9802374 C45.7278949,32.8627902 46.5798912,32.9569771 47.0923924,33.239798 L47.1247022,33.2582088 C47.5351176,33.4993771 48.0233169,34.0619175 48.5705088,34.9417585 L48.628916,35.036893 L44.1193422,35.036893 L31.0055775,28.9807197 L30.9855863,28.9739403 C21.5470744,25.7731697 14.6859969,24.8250708 10.3700768,26.1557274 L10.2387426,26.1968704 C6.14790766,27.498915 4.34185942,30.0130499 4.91843705,33.6411241 L4.93568123,33.745312 L1.26866216,33.745312 L1.31226112,33.6580998 C3.77783478,28.7518197 7.5277677,24.2103531 12.5658614,20.0336458 C17.7043643,15.7736968 22.1972757,13.5396742 26.0310939,13.3139448 Z" id="路径-16" fill="#000000" fill-rule="nonzero"></path>
                <path d="M26.3352394,0.833333333 C27.6874188,1.26434422 28.7119281,1.77185867 29.408767,2.35587669 C30.105606,2.93989471 30.6674198,3.76187141 31.0942084,4.82180677 C32.600767,4.59504852 34.112965,4.4816694 35.6308024,4.4816694 C37.1486398,4.4816694 38.6564286,4.59504852 40.1541686,4.82180677 C40.8055343,3.83777018 41.5260114,3.01579349 42.3155999,2.35587669 C43.1051884,1.6959599 43.9754436,1.18844545 44.9263654,0.833333333 C46.3208607,5.65230445 46.1072916,10.3480841 44.285658,14.9206724 C42.4640245,19.4932606 39.5790726,22.5752587 35.6308024,24.1666667 C31.854784,22.2148365 29.1277507,19.1328384 27.4497027,14.9206724 C25.7716546,10.7085063 25.4001668,6.01272664 26.3352394,0.833333333 Z" id="路径-6" fill="#FFDD77"></path>
                <path d="M44.909892,0.420754798 L44.7914641,0 L44.3827074,0.156936321 C43.3871026,0.539184573 42.4757582,1.08559901 41.6502568,1.79492199 L41.5520597,1.88042326 C40.8345737,2.51341938 40.1748466,3.27811336 39.5725145,4.17366064 L39.5518598,4.20440119 L39.2993785,4.16851776 C37.945568,3.98148348 36.5836551,3.88796244 35.2137692,3.88796244 L34.9569833,3.88905826 C33.6733182,3.90001641 32.3936204,3.9931603 31.1179941,4.16847584 L30.9191841,4.19660085 L30.9100835,4.17486133 C30.4770496,3.17602956 29.9215558,2.38143572 29.2412844,1.79527876 C28.4981527,1.15495818 27.4266789,0.609260678 26.0260555,0.150260236 L25.5883003,0.0068027925 L25.5087745,0.459678888 C24.5599712,5.86283667 24.9377468,10.7723103 26.6460811,15.181023 C28.3437395,19.5621844 31.1011974,22.7902422 34.9105405,24.8495454 L35.1926584,25 L35.3667279,24.9278668 C39.4277501,23.2450072 42.3935676,19.9875699 44.2560589,15.181023 C46.1122054,10.3908499 46.3300539,5.46635669 44.909892,0.420754798 Z M26.2167026,1.05767801 L26.3179429,1.09457933 C27.3593838,1.47937124 28.16023,1.91541463 28.7199731,2.39771818 C29.3654941,2.95393236 29.8924119,3.7465209 30.2976124,4.78112535 L30.4140615,5.07845677 L30.7301957,5.02953678 C32.2192441,4.79911488 33.7137087,4.68391609 35.2137692,4.68391609 C36.7137407,4.68391609 38.2036695,4.7991011 39.68374,5.02948225 L39.9403638,5.06942716 L40.0807526,4.85137682 C40.7131959,3.86907305 41.410036,3.05171886 42.1707388,2.39807495 L42.2656954,2.31760799 C42.869588,1.81296437 43.521015,1.40293901 44.2207615,1.08690791 L44.2597654,1.06945813 L44.2613203,1.07490686 C45.5017322,5.80167959 45.2518997,10.4040138 43.5120854,14.8939672 L43.4581589,15.0318841 C41.7045723,19.4764437 38.9845051,22.4898235 35.2905451,24.0952679 L35.234485,24.1191616 L35.1739203,24.086104 C31.5954375,22.1164578 29.0033697,19.0574631 27.3900546,14.8939672 C25.7908221,10.7668144 25.3953423,6.17636253 26.2072143,1.11621206 L26.2167026,1.05767801 Z" id="路径-6" fill="#000000" fill-rule="nonzero"></path>
                <path d="M25.8333333,0.833333333 C26.1760495,2.40112898 26.5356592,3.50724084 26.9121624,4.15166892 C27.2886657,4.796097 27.9805091,5.48966677 28.9876928,6.23237824 C31.1161161,5.68399482 32.7179768,5.36952475 33.7932748,5.28896803 C34.2130551,5.2575199 35,8.20210577 35.1997226,8.33333333 C35.2182083,8.3453995 36.3792775,5.3386153 36.4141411,5.3386153 C38.4793816,5.3386153 40.1390369,5.63653628 41.3931069,6.23237824 C41.9541924,5.93992779 42.5159131,5.24635802 43.0782692,4.15166892 C43.6406253,3.05697982 44.0034244,1.95086795 44.1666667,0.833333333 C43.5700181,0.984593491 42.7632299,1.48582265 41.746302,2.3370208 C40.7293741,3.18821895 39.9674879,4.00001589 39.4606432,4.77241163 C37.9779772,4.54846166 36.4910961,4.43648668 35,4.43648668 C33.5089039,4.43648668 32.0176747,4.54846166 30.5263124,4.77241163 C30.0645276,3.69126144 29.5105042,2.8794645 28.8642421,2.3370208 C28.21798,1.7945771 27.2076771,1.29334794 25.8333333,0.833333333 Z" id="路径-7" fill="#000000"></path>
                <path d="M29.5597782,9.63171183 L29.1666667,9.32608391 L29.264033,9.2030268 C29.2802069,9.18286788 29.2963536,9.16288439 29.312473,9.14307651 L29.4088598,9.02633812 C29.424869,9.00723346 29.4408505,8.98830479 29.4568041,8.96955231 L29.5521879,8.85915312 C29.5838694,8.82305914 29.6154373,8.78767141 29.6468899,8.75299144 L29.7408998,8.65107637 L29.834207,8.55341702 C31.1665258,7.18417566 32.2791064,7.12920765 33.0336464,8.50912048 C33.6714986,9.67563301 33.5433068,11.3103745 32.6703825,13.4175293 L32.5948419,13.5967234 C32.504644,13.8070954 32.4072129,14.0220605 32.3025691,14.2416228 L32.2111085,14.430945 C32.1955708,14.4626863 32.179886,14.4945216 32.1640543,14.5264506 L32.0672998,14.7191513 C32.0508802,14.7514559 32.0343137,14.7838543 32.0176003,14.8163466 L31.9155585,15.0124271 L31.8665396,15.1046319 L37.5,18.749349 L37.2289391,19.1666667 L31.2098468,15.2723674 L31.3197354,15.0702233 L31.4233359,14.8776395 C31.4912486,14.7500364 31.5568532,14.6240059 31.6201538,14.4995487 L31.7133771,14.3140429 L31.8031473,14.1308976 L31.8894672,13.9501135 C31.9035665,13.9201796 31.9175222,13.8903441 31.9313342,13.860607 L32.0124844,13.6833656 C32.1713408,13.331245 32.3095402,12.9932998 32.4271888,12.6695507 L32.4843011,12.5088592 C33.047541,10.8871921 33.0802003,9.6324467 32.5962343,8.74736323 C32.5695444,8.69855242 32.5423784,8.65211969 32.5147216,8.60807793 L32.4728663,8.54381013 C32.0505952,7.91909669 31.5162146,7.83380265 30.8198234,8.33144453 L30.7496424,8.38315345 C30.71428,8.40998108 30.6785084,8.43826968 30.6423215,8.46802468 L30.5693918,8.52949151 C30.4836566,8.60348765 30.395637,8.68548729 30.3052538,8.77555954 L30.2272019,8.85474291 L30.1479811,8.93788988 C30.1346796,8.95207854 30.121329,8.96643276 30.1079289,8.98095274 L30.0269342,9.07006324 L29.9447429,9.16316152 C29.9171452,9.19485999 29.8893462,9.22722469 29.8613441,9.26025725 L29.7767265,9.3613601 L29.6908792,9.46647974 L29.6037911,9.57562584 L29.5597782,9.63171183 Z" id="路径-8" fill="#000000" fill-rule="nonzero"></path>
                <path d="M41.5884274,9.16666667 L41.6666667,9.63501564 C40.0381146,9.90706709 38.9901338,10.4872874 38.5018404,11.361913 C38.0257732,12.2146394 38.1102134,13.2984727 38.7788233,14.6311056 L38.8165694,14.7053969 L38.9150106,14.8967665 L33.04577,18.9814216 L32.682775,18.5949867 L38.2980978,14.7296093 L38.2802267,14.6923364 C37.6274415,13.3216271 37.5467098,12.1470684 38.0582089,11.1837471 L38.0872349,11.1304467 C38.6467873,10.1281826 39.7897969,9.48320065 41.4964599,9.18244913 L41.5884274,9.16666667 Z" id="路径-9" fill="#000000" fill-rule="nonzero"></path>
                <polygon id="路径-10" fill="#000000" fill-rule="nonzero" points="40.8333333 12.745305 40.8333333 13.450939 30.459784 13.4242569 30.459784 12.745305"></polygon>
                <polygon id="路径-11" fill="#000000" fill-rule="nonzero" points="38.4447863 14.4645567 38.5418255 15.1070887 31.6666667 15.2308533 31.6666667 14.6070887"></polygon>
                <polygon id="路径-12" fill="#000000" points="25.8333333 10 28.3333333 11.5071831 26.0735971 11.6666667"></polygon>
                <polygon id="路径-13" fill="#000000" points="26.4179259 12.5 28.3333333 13.5387782 27.1440005 14.1666667"></polygon>
                <polygon id="路径-14" fill="#000000" points="45 11.6666667 42.5 12.9334145 44.5930203 13.3333333"></polygon>
                <path d="M42.5,14.7372392 L44.1666667,14.1666667 C43.8957143,15.3651391 43.7227795,15.9172603 43.6478622,15.8230301 C43.5729449,15.7288 43.1903242,15.3668697 42.5,14.7372392 Z" id="路径-15" fill="#000000"></path>
                <path d="M10.8333333,25.9883817 L17.7725722,31.6666667 L21.5720627,31.6666667 C21.828768,30.848672 21.5630512,30.2686011 20.7749124,29.926454 C19.9867736,29.5843068 19.2034015,29.5843068 18.4247961,29.926454 C17.896267,29.3687561 17.4893936,28.7507837 17.2041761,28.0725367 C16.9189585,27.3942896 16.8312793,26.6478885 16.9411384,25.8333333 L10.8333333,25.9883817 Z" id="路径-17" fill="#000000"></path>
                <path d="M5.49716242,13.1713119 C7.05076122,9.08143807 10.2248674,7.5678014 14.8591213,8.69460641 L15,8.7295603 L14.7752084,9.4976135 C10.4905821,8.41339288 7.72204799,9.70426975 6.30433807,13.4364139 C4.89379236,17.1496982 6.82595678,21.3107895 12.1944139,25.9396824 L12.3581464,26.0800951 L11.7794671,26.6666667 C6.06120504,21.78917 3.93495442,17.2838496 5.49716242,13.1713119 Z" id="路径-18" fill="#000000" fill-rule="nonzero"></path>
                <path d="M20,10.4387035 C18.9423656,9.27166182 18.0676276,8.48562166 17.375786,8.08058301 C16.6839444,7.67554436 15.8324754,7.48243446 14.821379,7.50125331 C14.1667921,7.51026442 13.7164927,7.84097444 13.4704807,8.49338337 C13.2244686,9.14579229 13.3094251,9.66851171 13.72535,10.0615416 C14.4348521,10.4987842 15.3381804,10.7503799 16.4353352,10.8163285 C17.5324899,10.8822772 18.7207115,10.7564022 20,10.4387035 Z" id="路径-19" fill="#000000"></path>
                <polygon id="路径-20" fill="#000000" points="22.0180801 13.3333333 23.3333333 18.3333333 19.1666667 14.6044272"></polygon>
                <polygon id="路径-21" fill="#000000" points="17.9874485 15.8333333 20 18.3333333 15.8333333 16.7544694"></polygon>
                <polygon id="路径-22" fill="#000000" points="14.0902135 18.3333333 15 20.8333333 12.5 19.5833333"></polygon>
                <path d="M37.6958967,25 C37.6958967,25 37.0750423,25.5555556 35.8333333,26.6666667 L38.8040369,26.2821406 C38.0652768,25.4273802 37.6958967,25 37.6958967,25 Z" id="路径-23" fill="#000000"></path>
                <polygon id="路径-24" fill="#000000" points="39.3692566 27.3047885 36.6666667 29.1666667 40.2550289 28.2357276"></polygon>
                <path d="M16.7099926,20 L17.5,20.1132629 L17.1555801,21.7328726 L16.9775954,22.5542437 C16.7647152,23.5331192 16.6509675,24.5588737 16.6365466,25.6316389 L16.6350068,25.8333333 L15.8333333,25.8323043 C15.8355346,24.6475957 15.9539142,23.5153499 16.1887049,22.4357251 L16.4455682,21.2479731 L16.6582692,20.2477783 L16.7099926,20 Z" id="路径-25" fill="#000000" fill-rule="nonzero"></path>
                <polygon id="路径-26" fill="#000000" fill-rule="nonzero" points="30 16.2201395 30 16.8333333 25 16.8333333 25 16.2201395"></polygon>
                <polygon id="路径-26" fill="#000000" fill-rule="nonzero" points="30 18 30 18.6131939 25 18.6131939 25 18"></polygon>
                <polygon id="路径-26" fill="#000000" fill-rule="nonzero" points="46 16 46 16.6131939 41 16.6131939 41 16"></polygon>
                <polygon id="路径-26" fill="#000000" fill-rule="nonzero" points="46 17.7798605 46 18.3930544 41 18.3930544 41 17.7798605"></polygon>
            </g>
        </g>
    </g>
</svg>